<?xml version="1.0" encoding="UTF-8" standalone="no"?><!DOCTYPE svg PUBLIC "-//W3C//DTD SVG 1.1//EN" "http://www.w3.org/Graphics/SVG/1.1/DTD/svg11.dtd"><svg width="100%" height="100%" viewBox="0 0 480 589" version="1.1" xmlns="http://www.w3.org/2000/svg" xmlns:xlink="http://www.w3.org/1999/xlink" xml:space="preserve" xmlns:serif="http://www.serif.com/" style="fill-rule:evenodd;clip-rule:evenodd;stroke-linejoin:round;stroke-miterlimit:1.5;"><rect id="Artboard1" x="0" y="0" width="479.46" height="588.359" style="fill:none;"/><clipPath id="_clip1"><rect x="0" y="0" width="479.46" height="588.359"/></clipPath><g clip-path="url(#_clip1)"><path d="M108.419,585.209l-41.891,-32.972c-3.076,-2.423 -3.606,-6.87 -1.183,-9.946l353.958,-449.669c2.415,-3.076 6.862,-3.606 9.938,-1.183l41.891,32.972c3.076,2.423 3.606,6.87 1.183,9.946l-353.958,449.669c-2.415,3.068 -6.862,3.598 -9.938,1.183" style="fill:#cdc8e4;fill-rule:nonzero;"/><path d="M109.9,588.355l-109.9,0l0,-588.355l109.9,0c4.855,0 8.796,3.933 8.796,8.796l0,570.764c0,4.855 -3.941,8.796 -8.796,8.796" style="fill:#cdc8e4;fill-rule:nonzero;"/><path d="M150.247,333.919l-31.553,40.055l0,-82.974l30.835,30.843c3.264,3.264 3.574,8.453 0.718,12.076" style="fill:#cdc8e4;fill-rule:nonzero;"/><path d="M249.43,337.871l218.25,222.909c10.012,10.232 2.823,27.579 -11.431,27.579l-37.705,0c-4.259,0 -8.339,-1.713 -11.358,-4.749l-241.847,-243.87c-5.752,-5.793 -6.291,-15.013 -1.265,-21.459l242.997,-311.366c3.043,-3.9 7.694,-6.177 12.623,-6.177l41.899,0c13.406,0 20.913,15.585 12.623,26.208l-225.977,289.531c-5.01,6.413 -4.496,15.585 1.191,21.394" style="fill:#ea7836;fill-rule:nonzero;"/><path d="M116.957,291.002l0,82.97" style="fill:none;stroke:#cdc8e4;stroke-width:1px;"/><path d="M116.957,289.98l10.691,11.258l0,60.507l-12.351,15.721" style="fill:#cdc8e4;stroke:#cdc8e4;stroke-width:1px;"/></g></svg>