<?xml version="1.0" encoding="UTF-8" standalone="no"?><!DOCTYPE svg PUBLIC "-//W3C//DTD SVG 1.1//EN" "http://www.w3.org/Graphics/SVG/1.1/DTD/svg11.dtd"><svg width="100%" height="100%" viewBox="0 0 13 16" version="1.1" xmlns="http://www.w3.org/2000/svg" xmlns:xlink="http://www.w3.org/1999/xlink" xml:space="preserve" xmlns:serif="http://www.serif.com/" style="fill-rule:evenodd;clip-rule:evenodd;stroke-linejoin:round;stroke-miterlimit:2;"><path d="M2.96,15.922l-1.16,-0.913c-0.078,-0.061 -0.091,-0.174 -0.03,-0.252l9.642,-12.249c0.061,-0.078 0.174,-0.091 0.252,-0.03l1.16,0.913c0.078,0.061 0.091,0.174 0.03,0.252l-9.642,12.249c-0.061,0.078 -0.174,0.091 -0.252,0.03" style="fill:#cdc8e4;fill-rule:nonzero;"/><path d="M3.02,16l-3.019,0l0,-16l3.019,0c0.115,0 0.209,0.093 0.209,0.209l0,15.583c0,0.115 -0.093,0.209 -0.209,0.209" style="fill:#504b65;fill-rule:nonzero;"/><path d="M4.087,9.081l-0.858,1.089l0,-2.256l0.839,0.839c0.089,0.089 0.097,0.23 0.019,0.329" style="fill:#cdc8e4;fill-rule:nonzero;"/><path d="M6.784,9.188l6.108,6.062c0.272,0.278 0.077,0.75 -0.311,0.75l-1.198,0c-0.116,0 -0.227,-0.046 -0.309,-0.129l-6.577,-6.632c-0.156,-0.158 -0.171,-0.408 -0.034,-0.584l6.608,-8.467c0.083,-0.106 0.209,-0.168 0.343,-0.168l1.14,0c0.365,0 0.569,0.424 0.343,0.713l-6.145,7.874c-0.136,0.174 -0.122,0.424 0.032,0.582" style="fill:#ea7836;fill-rule:nonzero;"/></svg>